/* XPM */
static char * xmms_xpm[] = {
"48 48 257 2",
"  	c None",
". 	c #040506",
"+ 	c #046274",
"@ 	c #84643B",
"# 	c #60462C",
"$ 	c #04353B",
"% 	c #0496AC",
"& 	c #343228",
"* 	c #948E6C",
"= 	c #446264",
"- 	c #2C261C",
"; 	c #449AAC",
"> 	c #041C20",
", 	c #044C56",
"' 	c #0C7C91",
") 	c #C46A2C",
"! 	c #44B2C4",
"~ 	c #1C1A1B",
"{ 	c #344E4C",
"] 	c #CC9058",
"^ 	c #2492A4",
"/ 	c #24323C",
"( 	c #04282F",
"_ 	c #045767",
": 	c #447A84",
"< 	c #286268",
"[ 	c #04404C",
"} 	c #D0A670",
"| 	c #040F0E",
"1 	c #047284",
"2 	c #3C7E84",
"3 	c #EC8030",
"4 	c #847E5C",
"5 	c #649EA4",
"6 	c #64B0C0",
"7 	c #6C625C",
"8 	c #0C889C",
"9 	c #343E44",
"0 	c #44A4B5",
"a 	c #4C4C4A",
"b 	c #FC8F39",
"c 	c #2CA3B9",
"d 	c #141B1B",
"e 	c #145863",
"f 	c #146372",
"g 	c #AC6634",
"h 	c #141011",
"i 	c #8C5A34",
"j 	c #143438",
"k 	c #149EB5",
"l 	c #144C57",
"m 	c #54B2C8",
"n 	c #14282A",
"o 	c #F4842C",
"p 	c #646364",
"q 	c #144048",
"r 	c #1496AC",
"s 	c #1C282C",
"t 	c #208698",
"u 	c #545757",
"v 	c #6C6F6F",
"w 	c #072226",
"x 	c #045E6C",
"y 	c #ECA35F",
"z 	c #4C3E28",
"A 	c #EC9A54",
"B 	c #1C0404",
"C 	c #046A80",
"D 	c #061619",
"E 	c #146E7F",
"F 	c #54A2AC",
"G 	c #3CA6B4",
"H 	c #54B8C9",
"I 	c #5C5D5E",
"J 	c #A4AA94",
"K 	c #442816",
"L 	c #5C98A8",
"M 	c #1C7F94",
"N 	c #C47E44",
"O 	c #042E34",
"P 	c #0C8EA6",
"Q 	c #32AABE",
"R 	c #F48A3C",
"S 	c #ECAE64",
"T 	c #94623C",
"U 	c #063A44",
"V 	c #443324",
"W 	c #09525E",
"X 	c #647A84",
"Y 	c #064653",
"Z 	c #0B768A",
"` 	c #64BCC9",
" .	c #090A0C",
"..	c #0C1C1F",
"+.	c #1D2224",
"@.	c #3C5E5F",
"#.	c #3494A0",
"$.	c #0C5763",
"%.	c #A47E54",
"&.	c #148698",
"*.	c #515251",
"=.	c #AC764C",
"-.	c #747070",
";.	c #0C3437",
">.	c #0C9AB4",
",.	c #3C3A2A",
"'.	c #447670",
").	c #0C8297",
"!.	c #D49A54",
"~.	c #0C1010",
"{.	c #FC9642",
"].	c #34A4B8",
"^.	c #143A43",
"/.	c #15525D",
"(.	c #FCA24F",
"_.	c #BC7F46",
":.	c #0C6370",
"<.	c #846B46",
"[.	c #0C94AB",
"}.	c #BC9264",
"|.	c #3C2D1A",
"1.	c #479EAE",
"2.	c #DC7628",
"3.	c #444A4C",
"4.	c #0C292C",
"5.	c #0C3F47",
"6.	c #E4863C",
"7.	c #3C4634",
"8.	c #44AABC",
"9.	c #142224",
"0.	c #74522C",
"a.	c #688C94",
"b.	c #4C8A84",
"c.	c #A4A28C",
"d.	c #A45C28",
"e.	c #DC8234",
"f.	c #ACA280",
"g.	c #2C8E9C",
"h.	c #1C424C",
"i.	c #A4B69C",
"j.	c #BC6C30",
"k.	c #DC8E4C",
"l.	c #3C6674",
"m.	c #7C7A74",
"n.	c #7C6840",
"o.	c #5C868C",
"p.	c #399EB4",
"q.	c #AC8A6C",
"r.	c #B48A5C",
"s.	c #6C4124",
"t.	c #444343",
"u.	c #546E74",
"v.	c #C47638",
"w.	c #249AAF",
"x.	c #CC8A54",
"y.	c #BC7539",
"z.	c #546A6C",
"A.	c #B4A68C",
"B.	c #FC9C4A",
"C.	c #74BABC",
"D.	c #4C5E4C",
"E.	c #74A0A0",
"F.	c #FCAB5C",
"G.	c #3C8A9C",
"H.	c #145E6D",
"I.	c #44B6CC",
"J.	c #3C524F",
"K.	c #146A7B",
"L.	c #A46E44",
"M.	c #1A1619",
"N.	c #189AB2",
"O.	c #1C8EA4",
"P.	c #687678",
"Q.	c #59AABB",
"R.	c #7C766C",
"S.	c #2C4244",
"T.	c #84522C",
"U.	c #9C9674",
"V.	c #945E34",
"W.	c #676A67",
"X.	c #1C2E2C",
"Y.	c #4C2E14",
"Z.	c #9C6A3C",
"`.	c #2C2E28",
" +	c #142E34",
".+	c #14464F",
"++	c #4C4634",
"@+	c #5C9EA0",
"#+	c #DC8A44",
"$+	c #E4964C",
"%+	c #4C8E9C",
"&+	c #4C98A0",
"*+	c #4CB1C2",
"=+	c #241A14",
"-+	c #0C7082",
";+	c #3C4038",
">+	c #5CB1C2",
",+	c #FC852E",
"'+	c #F4A258",
")+	c #6CBAC4",
"!+	c #7C7264",
"~+	c #BC864C",
"{+	c #CC722C",
"]+	c #64B6C4",
"^+	c #1C0A0C",
"/+	c #445254",
"(+	c #54767C",
"_+	c #3C3A3C",
":+	c #4C5E60",
"<+	c #0C5E6C",
"[+	c #0C6A7C",
"}+	c #0C2E34",
"|+	c #FC8A34",
"1+	c #4C767C",
"2+	c #0C0608",
"3+	c #0C4B57",
"4+	c #147E94",
"5+	c #3C4A44",
"6+	c #D49254",
"7+	c #4CA5B4",
"8+	c #1C6674",
"9+	c #94562C",
"0+	c #1C92A4",
"a+	c #242727",
"b+	c #5CB9CB",
"c+	c #ACAE8C",
"d+	c #247E8C",
"e+	c #9C6634",
"f+	c #EC8938",
"g+	c #AC5E24",
"h+	c #2C9EAC",
"i+	c #846644",
"j+	c #043644",
"k+	c #343434",
"l+	c #2C2A2C",
"m+	c #041E2C",
"n+	c #1C1E24",
"o+	c #04121C",
"p+	c #6CA2A4",
"q+	c #0C8AA4",
"r+	c #4C4E54",
"s+	c #FC9244",
"t+	c #141E24",
"u+	c #145A6C",
"v+	c #143644",
"w+	c #142A34",
"x+	c #F49E54",
"y+	c #5CA6AC",
"z+	c #6C7E84",
"A+	c #0C5A6C",
"B+	c #AC8254",
"C+	c #148AA4",
"D+	c #0C3644",
"E+	c #D49E64",
"F+	c #0C667C",
"G+	c #0C96B4",
"H+	c #0C4254",
"~ M.M.d ~ M.M.M.d M.d M.M.~ M.d M.~ M.d M.~ M.d M.M.d ~ d M.d ~ M.d ~ d M.~ M.d M.M.M.M.d M.~ M.",
"M.d d M.M.d d M.M.M.~ d M.d M.M.d M.d M.d M.d M.d d M.M.M.M.M.d M.M.M.M.M.d M.M.d d M.d M.d M.d ",
"M.M.M.d M.d ~ d 9.9.9.~ d d d M.M.d M.M.d M.M.d M.M.M.M.M.d d n j j j j n 9.n +.d ~ d ~ d M.M.d ",
"d d d ~ t+~ d n+n s n 9.~ M.M.d d M.M.M.~ M.d M.M.d d M.d d s .+3+/./.q  +j  +s 9.~ M.d M.M.d M.",
"~ 9.n 9.9.9.n  +q ^.j n n ~ ~ d M.M.d d M.d M.~ M.M.d d d 9.j /.W e e 3+.+W .+j n d d ~ d M.M.~ ",
"M.n s n j q /.<+f <+l q j n d ~ M.d M.~ h M.d M.d d ~ ~ s j 3+l l e :.:.K.[+H..+j s +.d M.~ d M.",
"~ j j ^./.F+Z ' ' Z E l q  +n+d d d M.d ~ d M.~ d d d d j H.f H.:.Z ' Z 8 ).[+f .+ +9.d ~ d M.d ",
"d j ^.q W f Z ' 8 8 ' H.3+^.n 9.+.d ~ h M.M.d M.~ M.~ n l -+' Z ).8 ).P [.>.).-+l j n d d d M.M.",
"d  +j j .+H.Z P 8 8 8 -+.+j n s 9.+.9.~ d =+d M.d d ~ j -+Z ' 8 P 8 8 [.[.P [.P [+q n +.d M.d M.",
"~ d s ^.<+Z [.P 8 8 P ' /.j n  +9.9.d d d d d 9.d ~  +[+).).' P P 8 8 P [.8 [.>.)./.j t+~ ~ ~ d ",
"M.~ 9..+Z >.[.% 8 ' ).).:.^.X.j j s 9.~ d ~ d 9.9.n /.).8 ' 8 % P 8 [.% [.% [.% ' W j d d M.M.M.",
"M.n j W ).[.[.[.q+' ).).[+l q q q j +.9.9.+.n +.j .+[+' ' ' P [.P % [.G+[.>.[.P E q n ~ d d d M.",
"d ^.q e Z [.% [.[.8 8 ).Z [+/..+5.^.n 9.9.n j ^..+H.Z Z 4+P [.G+G+>.>.G+>.G+% 8 e j n ~ ~ M.M.d ",
"M.q /.:.Z P G+G+% q+P 8 4+Z [+<+l .+X.n n j j ^..+[+Z ).[.% G+% >.% G+% >.% q+[+q  +d M.M.M.d M.",
"~ j .+:.' P [.% [.q+P P 8 Z Z E [+A+q j ^.q ^.q $.Z 8 P [.[.G+>.[.G+[.>.G+[.Z l  +9.~ d d M.d M.",
"d j q e ).P [.[.>.P % P P ).E -+Z F+e l /.e 3+H.' 8 8 P % % G+% G+% G+>.[.q+<+j +.d d ~ ~ h M.~ ",
"M.j ^./.' [.% [.% G+[.[.% P ' -+' ' [+K.[+[+-+' P 8 P [.>.G+>.>.G+>.% G+[.Z q 9.t+~ d ~ h ~ d M.",
"+.X.S./.8+O.N.r N.k N.r N.N.r O.&.C+&.4+4+M 4+t 0+k k k k k k k k N.k r 4+/.X.a+- a+l+a+a++.+.~ ",
"& 9 { @.@.2 p.].].c Q ].].].c w.h+w.^ g.g.#.#.#.c G Q Q c Q Q Q c c w.d+8+9 9 _+;+t.t.;+,.& l+a+",
"t.*.:+z.u.1+%+7+0 ! ! *+! 8.0 p.].].p.p.p.&+7+*+*+I.I.*+I.*+8.*+0 ; G.l.J.t.3.a u u u r+t.;+k+- ",
"u p p P.X o.L L L Q.H b+H m 7+; p.0 0 Q.Q.Q.b+>+b+b+H H H >+>+F F %+1+= /+u I p p p I *.a _+`.a+",
"W.v P.P.z+a.p+E.5 y+b+b+b+C.Q.1.; 0 Q.>+]+` ` ` ` ` C.` b+>+6 Q.E.a.1+:+u I 7 v v !+!+7 a _+`.=+",
"q.A A A R.] B.B.B.f.>+J x+B.(.} 5 0 >+i.S y y )+} B.B.B.f.Q.c.x+B.(.!.W.:+p R.}.x+B.B.B.(.x.;+M.",
"r.(.{.s+6.b |+b |+b 6+s+b b {.{.!.G *+A.B.{.b $+b |+|+|+b 6+b b b s+{.#+/+I ] {.s+b b s+B.(.'+- ",
"B+{.b ,+|+3 ,+,+,+,+,+,+f+|+|+b {.&+8.c.b b |+,+R ,+,+,+,+,+|+o |+|+b s+*.*.{.s+b T & s.e.y.N # ",
"=.b |+,+d.d V ,+,+,+o { H.N ,+,+b b.#.U.|+|+,+%.C '.,+,+,+,+< A+v.,+|+b z t.b s+|+2.9+s.|.h ~.~.",
"L.b ,+|+Y.~.~.,+,+,+) ..$ <.|+|+|+'.d+* ,+,+,+D., _ ,+,+,+{+Y Y @ |+,+|+,.t+g b |+,+,+,+,+R V.h ",
"Z.s+|+|+K 2+ .,+,+,+j.D ..@ |+|+|+D.x 4 |+|+b 5+U [ ,+,+,+y.$ U @ |+|+|+V D d T.{+,+,+,+,+|+{.Z.",
"T s+b b K 2+ .b |+|+j.D ( @ b |+b J., <.b b b 7.O U b |+|+y.w O @ b b b V ~...D M.=+K s.2.|+{.(.",
"i B.{.{.|.. ~.{.{.{.y.> O @ {.{.b 7.$ <.{.{.{.;+O $ s+B.{.y.( O @ {.s+b ,.z #+{.{.d.2+2+g+b B.$+",
"@ (.B.(.K  . .B.(.B._.> ( @ (.B.B.;+( @ B.B.(.,.( $ B.B.B._.w ( n.B.(.B.,.9.$+(.{.{.f+3 b s+B.0.",
"T F.F.F.|. .~.F.F.F._.> w <.F.F.F.,.> n.F.F.F.,.> w F.F.F.~+> ( <.F.F.F.,.D `.~+(.B.B.B.(.k.s.. ",
"~.2+. .  .| o+w > > > > ( ( ( > > > > > > D D D D > D > D D > ( ( ( > > > > > > n & Y.|.=+. . . ",
"~.~. .| D > O $ $ O ( $ $ $ $ O ( w w > w > > o+D > D > > w ( $ $ $ $ ( O ( ( ( ( > |  .. . .  .",
"h  .~.> ( U Y Y [ [ [ [ Y , Y [ $ O ( O O ( ..........w w O [ [ Y [ [ [ U [ [ $ $ O w o+ . . . .",
"h h ~.4.[ W _ x _ _ W _ _ _ _ , [ [ ;.U ;.}+4.w 4.4.4.4.$ U H+_ _ _ W W W _ _ W , [ $ ( > D ~.~.",
"M.h M.}+<+-+1 1 ' 1 C C Z C :.A+$.3+H+5.5.;.4.n 4.;. +j 5.H+W -+1 -+C C -+1 Z C F+x $.U ;.4.9...",
"M.h d q Z ).).q+8 ).).).).' -+-+<+.+H+.+q q U  +9.w+j j H+l $.-+' ).).).' ).8 ' -+[+:.Y ^.^. +t+",
"d M.9.q Z 8 8 % P q+P 8 8 8 ' C .+.+3+$./.3+q n t+9. +j ^.q W [+Z ' ' ).).' 8 P ' Z -+e Y ^.n 9.",
"M.M.t+^.-+8 [.% % P P 8 % 8 Z /.q $.H.e <+l  +9.n+t+9.n j j .+H.:.:.[+Z -++ Z P % ).' H.e $.^.n ",
"~ B ~ q -+P % [.P P 8 q+P ).A+.+e e $.l q n n+M.~ d ~ 9.s  +^.l :.e <+-+' Z ).% [.q+' A+$.e q n ",
"M.B d q [+8 [.% P P 8 P 8 E W l W .+q j n d M.d M.d d n+t+n  +q e [+[+K.' ).).8 [.8 [+l q q j n ",
"M.^+t+^.H.8 [.P P P P 8 ' <+q q j s n 9.t+~ M.d M.M.M.M.d n+n j q :.Z Z E Z -+-+Z [+l q  +n n +.",
"M.M.9. +/.' % % q+8 ).' -+3+q s 9.t++.d M.d M.~ M.d d M.~ d t+9.n .+f [+F+f e .+q ^. +n n s 9.t+",
"d h ~ n q -+8 8 ' -+:.:.W q  +9.n+9.t+d ~ M.d M.d M.M.M.d ~ d n+9.s j q .+.+q j n n 9.+.t+t+~ n+",
"d M.~ t+n q A+H.W .+5.q j X.9.t+~ d ~ d M.~ h ~ M.d M.d M.M.~ ~ ~ t+9.9.n n n 9.+.d n+d d +.d ~ ",
"M.M.d d n+n n s n X. +n 9.+.t+~ d d M.M.d M.d M.d M.=+M.d M.M.d d d d ~ t+n+9.t+~ d ~ ~ 9.d d d ",
"M.d M.M.~ d ~ t+~ 9.9.+.9.9.d d M.~ M.d h M.=+d M.M.d h d M.M.d ~ ~ ~ ~ d d ~ ~ d M.d M.d ~ M.~ "};
